# Blender v2.77 (sub 0) OBJ File: ''
# www.blender.org
mtllib foot.mtl
o Cone_Cone.006
v 0.000000 0.100000 -1.000000
v 0.095671 0.092388 -1.000000
v 0.176777 0.070711 -1.000000
v 0.230970 0.038268 -1.000000
v 0.250000 0.000000 -1.000000
v 0.000000 -0.000000 0.000000
v 0.230970 -0.038268 -1.000000
v 0.176777 -0.070711 -1.000000
v 0.095671 -0.092388 -1.000000
v 0.000000 -0.100000 -1.000000
v -0.095671 -0.092388 -1.000000
v -0.176777 -0.070711 -1.000000
v -0.230970 -0.038268 -1.000000
v -0.250000 0.000000 -1.000000
v -0.230970 0.038268 -1.000000
v -0.176777 0.070711 -1.000000
v -0.095671 0.092388 -1.000000
vn 0.0789 0.9919 0.0992
vn 0.2565 0.9599 0.1132
vn 0.5078 0.8483 0.1498
vn 0.8738 0.4345 0.2184
vn 0.8738 -0.4345 0.2184
vn 0.5078 -0.8483 0.1498
vn 0.2565 -0.9599 0.1132
vn 0.0789 -0.9919 0.0992
vn -0.0789 -0.9919 0.0992
vn -0.2565 -0.9599 0.1132
vn -0.5078 -0.8483 0.1498
vn -0.8738 -0.4345 0.2184
vn -0.8738 0.4345 0.2184
vn -0.5078 0.8483 0.1498
vn -0.2565 0.9599 0.1132
vn -0.0789 0.9919 0.0992
vn 0.0000 0.0000 -1.0000
usemtl None
s off
f 1//1 6//1 2//1
f 2//2 6//2 3//2
f 3//3 6//3 4//3
f 4//4 6//4 5//4
f 5//5 6//5 7//5
f 7//6 6//6 8//6
f 8//7 6//7 9//7
f 9//8 6//8 10//8
f 10//9 6//9 11//9
f 11//10 6//10 12//10
f 12//11 6//11 13//11
f 13//12 6//12 14//12
f 14//13 6//13 15//13
f 15//14 6//14 16//14
f 16//15 6//15 17//15
f 17//16 6//16 1//16
f 12//17 16//17 17//17
f 17//17 1//17 10//17
f 2//17 3//17 9//17
f 4//17 5//17 7//17
f 7//17 8//17 4//17
f 9//17 10//17 1//17
f 11//17 12//17 17//17
f 13//17 14//17 15//17
f 15//17 16//17 13//17
f 1//17 2//17 9//17
f 4//17 8//17 3//17
f 10//17 11//17 17//17
f 13//17 16//17 12//17
f 3//17 8//17 9//17
