# Blender v2.77 (sub 0) OBJ File: ''
# www.blender.org
mtllib limb.mtl
o Cone_Cone.002
v 0.000000 0.000000 0.250001
v 0.095671 0.000000 0.230971
v 0.176777 0.000000 0.176777
v 0.230971 0.000000 0.095671
v 0.250001 0.000000 0.000000
v 0.000000 -2.000000 -0.000000
v 0.230971 0.000000 -0.095671
v 0.176777 0.000000 -0.176777
v 0.095671 0.000000 -0.230970
v 0.000000 0.000000 -0.250001
v -0.095671 0.000000 -0.230970
v -0.176777 0.000000 -0.176777
v -0.230971 0.000000 -0.095671
v -0.250001 0.000000 0.000000
v -0.230971 0.000000 0.095671
v -0.176777 0.000000 0.176777
v -0.095671 0.000000 0.230971
vn 0.1936 -0.1217 0.9735
vn 0.5514 -0.1217 0.8253
vn 0.8253 -0.1217 0.5514
vn 0.9735 -0.1217 0.1936
vn 0.9735 -0.1217 -0.1936
vn 0.8253 -0.1217 -0.5514
vn 0.5514 -0.1217 -0.8253
vn 0.1936 -0.1217 -0.9735
vn -0.1936 -0.1217 -0.9735
vn -0.5514 -0.1217 -0.8253
vn -0.8253 -0.1217 -0.5514
vn -0.9735 -0.1217 -0.1936
vn -0.9735 -0.1217 0.1936
vn -0.8253 -0.1217 0.5514
vn -0.5514 -0.1217 0.8253
vn -0.1936 -0.1217 0.9735
vn 0.0000 1.0000 0.0000
usemtl None
s off
f 1//1 6//1 2//1
f 2//2 6//2 3//2
f 3//3 6//3 4//3
f 4//4 6//4 5//4
f 5//5 6//5 7//5
f 7//6 6//6 8//6
f 8//7 6//7 9//7
f 9//8 6//8 10//8
f 10//9 6//9 11//9
f 11//10 6//10 12//10
f 12//11 6//11 13//11
f 13//12 6//12 14//12
f 14//13 6//13 15//13
f 15//14 6//14 16//14
f 16//15 6//15 17//15
f 17//16 6//16 1//16
f 9//17 13//17 17//17
f 17//17 1//17 2//17
f 2//17 3//17 4//17
f 4//17 5//17 7//17
f 7//17 8//17 9//17
f 9//17 10//17 11//17
f 11//17 12//17 13//17
f 13//17 14//17 15//17
f 15//17 16//17 17//17
f 17//17 2//17 9//17
f 4//17 7//17 9//17
f 9//17 11//17 13//17
f 13//17 15//17 17//17
f 2//17 4//17 9//17
o Icosphere_Icosphere.001
v 0.000000 -2.250000 0.000000
v 0.180902 -2.111805 0.131431
v -0.069097 -2.111805 0.212662
v -0.223607 -2.111804 0.000000
v -0.069097 -2.111805 -0.212662
v 0.180902 -2.111805 -0.131431
v 0.069097 -1.888195 0.212662
v -0.180902 -1.888195 0.131431
v -0.180902 -1.888195 -0.131431
v 0.069097 -1.888195 -0.212662
v 0.223607 -1.888196 0.000000
v 0.000000 -1.750000 0.000000
v -0.040614 -2.212664 0.124999
v 0.106331 -2.212664 0.077253
v 0.065717 -2.131434 0.202253
v 0.212662 -2.131434 0.000000
v 0.106331 -2.212664 -0.077253
v -0.131432 -2.212663 0.000000
v -0.172047 -2.131434 0.124999
v -0.040614 -2.212664 -0.124999
v -0.172047 -2.131434 -0.124999
v 0.065717 -2.131434 -0.202253
v 0.237764 -2.000000 0.077253
v 0.237764 -2.000000 -0.077253
v 0.000000 -2.000000 0.250000
v 0.146946 -2.000000 0.202254
v -0.237764 -2.000000 0.077253
v -0.146946 -2.000000 0.202254
v -0.146946 -2.000000 -0.202254
v -0.237764 -2.000000 -0.077253
v 0.146946 -2.000000 -0.202254
v 0.000000 -2.000000 -0.250000
v 0.172047 -1.868566 0.124999
v -0.065717 -1.868566 0.202253
v -0.212662 -1.868566 0.000000
v -0.065717 -1.868566 -0.202253
v 0.172047 -1.868566 -0.124999
v 0.040614 -1.787336 0.124999
v 0.131432 -1.787337 0.000000
v -0.106331 -1.787336 0.077253
v -0.106331 -1.787336 -0.077253
v 0.040614 -1.787336 -0.124999
vn 0.1024 -0.9435 0.3151
vn 0.7002 -0.6617 0.2680
vn -0.2680 -0.9435 0.1947
vn -0.2680 -0.9435 -0.1947
vn 0.1024 -0.9435 -0.3151
vn 0.9050 -0.3304 0.2680
vn 0.0247 -0.3304 0.9435
vn -0.8897 -0.3304 0.3151
vn -0.5746 -0.3304 -0.7488
vn 0.5346 -0.3304 -0.7779
vn 0.8026 -0.1256 0.5831
vn -0.3066 -0.1256 0.9435
vn -0.9921 -0.1256 0.0000
vn -0.3066 -0.1256 -0.9435
vn 0.8026 -0.1256 -0.5831
vn 0.4089 0.6617 0.6284
vn -0.4713 0.6617 0.5831
vn -0.7002 0.6617 -0.2680
vn 0.0385 0.6617 -0.7488
vn 0.7240 0.6617 -0.1947
vn 0.2680 0.9435 -0.1947
vn 0.4911 0.7947 -0.3568
vn 0.4089 0.6617 -0.6284
vn -0.1024 0.9435 -0.3151
vn -0.1876 0.7947 -0.5773
vn -0.4713 0.6617 -0.5831
vn -0.3313 0.9435 0.0000
vn -0.6071 0.7947 0.0000
vn -0.7002 0.6617 0.2680
vn -0.1024 0.9435 0.3151
vn -0.1876 0.7947 0.5773
vn 0.0385 0.6617 0.7488
vn 0.2680 0.9435 0.1947
vn 0.4911 0.7947 0.3568
vn 0.7240 0.6617 0.1947
vn 0.8897 0.3304 -0.3151
vn 0.7947 0.1876 -0.5773
vn 0.5746 0.3304 -0.7488
vn -0.0247 0.3304 -0.9435
vn -0.3035 0.1876 -0.9342
vn -0.5346 0.3304 -0.7779
vn -0.9050 0.3304 -0.2680
vn -0.9822 0.1876 0.0000
vn -0.9050 0.3304 0.2680
vn -0.5346 0.3304 0.7779
vn -0.3035 0.1876 0.9342
vn -0.0247 0.3304 0.9435
vn 0.5746 0.3304 0.7488
vn 0.7947 0.1876 0.5773
vn 0.8897 0.3304 0.3151
vn 0.3066 0.1256 -0.9435
vn 0.3035 -0.1876 -0.9342
vn 0.0247 -0.3304 -0.9435
vn -0.8026 0.1256 -0.5831
vn -0.7947 -0.1876 -0.5773
vn -0.8897 -0.3304 -0.3151
vn -0.8026 0.1256 0.5831
vn -0.7947 -0.1876 0.5773
vn -0.5746 -0.3304 0.7488
vn 0.3066 0.1256 0.9435
vn 0.3035 -0.1876 0.9342
vn 0.5346 -0.3304 0.7779
vn 0.9921 0.1256 0.0000
vn 0.9822 -0.1876 0.0000
vn 0.9050 -0.3304 -0.2680
vn 0.4713 -0.6617 -0.5831
vn 0.1876 -0.7947 -0.5773
vn -0.0385 -0.6617 -0.7488
vn -0.4089 -0.6617 -0.6284
vn -0.4911 -0.7947 -0.3568
vn -0.7240 -0.6617 -0.1947
vn -0.7240 -0.6617 0.1947
vn -0.4911 -0.7947 0.3568
vn -0.4089 -0.6617 0.6284
vn 0.7002 -0.6617 -0.2680
vn 0.6071 -0.7947 0.0000
vn 0.3313 -0.9435 0.0000
vn -0.0385 -0.6617 0.7488
vn 0.1876 -0.7947 0.5773
vn 0.4713 -0.6617 0.5831
usemtl None
s off
f 18//18 31//18 30//18
f 19//19 31//19 33//19
f 18//20 30//20 35//20
f 18//21 35//21 37//21
f 18//22 37//22 34//22
f 19//23 33//23 40//23
f 20//24 32//24 42//24
f 21//25 36//25 44//25
f 22//26 38//26 46//26
f 23//27 39//27 48//27
f 19//28 40//28 43//28
f 20//29 42//29 45//29
f 21//30 44//30 47//30
f 22//31 46//31 49//31
f 23//32 48//32 41//32
f 24//33 50//33 55//33
f 25//34 51//34 57//34
f 26//35 52//35 58//35
f 27//36 53//36 59//36
f 28//37 54//37 56//37
f 56//38 59//38 29//38
f 56//39 54//39 59//39
f 54//40 27//40 59//40
f 59//41 58//41 29//41
f 59//42 53//42 58//42
f 53//43 26//43 58//43
f 58//44 57//44 29//44
f 58//45 52//45 57//45
f 52//46 25//46 57//46
f 57//47 55//47 29//47
f 57//48 51//48 55//48
f 51//49 24//49 55//49
f 55//50 56//50 29//50
f 55//51 50//51 56//51
f 50//52 28//52 56//52
f 41//53 54//53 28//53
f 41//54 48//54 54//54
f 48//55 27//55 54//55
f 49//56 53//56 27//56
f 49//57 46//57 53//57
f 46//58 26//58 53//58
f 47//59 52//59 26//59
f 47//60 44//60 52//60
f 44//61 25//61 52//61
f 45//62 51//62 25//62
f 45//63 42//63 51//63
f 42//64 24//64 51//64
f 43//65 50//65 24//65
f 43//66 40//66 50//66
f 40//67 28//67 50//67
f 48//68 49//68 27//68
f 48//69 39//69 49//69
f 39//70 22//70 49//70
f 46//71 47//71 26//71
f 46//72 38//72 47//72
f 38//73 21//73 47//73
f 44//74 45//74 25//74
f 44//75 36//75 45//75
f 36//76 20//76 45//76
f 42//77 43//77 24//77
f 42//78 32//78 43//78
f 32//79 19//79 43//79
f 40//80 41//80 28//80
f 40//81 33//81 41//81
f 33//82 23//82 41//82
f 34//83 39//83 23//83
f 34//84 37//84 39//84
f 37//85 22//85 39//85
f 37//86 38//86 22//86
f 37//87 35//87 38//87
f 35//88 21//88 38//88
f 35//89 36//89 21//89
f 35//90 30//90 36//90
f 30//91 20//91 36//91
f 33//92 34//92 23//92
f 33//93 31//93 34//93
f 31//94 18//94 34//94
f 30//95 32//95 20//95
f 30//96 31//96 32//96
f 31//97 19//97 32//97
