# Blender v2.77 (sub 0) OBJ File: ''
# www.blender.org
mtllib limb20.mtl
o Icosphere_Icosphere.003
v 0.000000 -2.000000 0.000000
v 0.180902 -1.861805 0.131431
v -0.069097 -1.861805 0.212662
v -0.223607 -1.861804 0.000000
v -0.069097 -1.861805 -0.212662
v 0.180902 -1.861805 -0.131431
v 0.069097 -1.638195 0.212662
v -0.180902 -1.638195 0.131431
v -0.180902 -1.638195 -0.131431
v 0.069097 -1.638195 -0.212662
v 0.223607 -1.638196 0.000000
v 0.000000 -1.500000 0.000000
v -0.040614 -1.962664 0.124999
v 0.106331 -1.962664 0.077253
v 0.065717 -1.881434 0.202253
v 0.212662 -1.881434 0.000000
v 0.106331 -1.962664 -0.077253
v -0.131432 -1.962663 0.000000
v -0.172047 -1.881434 0.124999
v -0.040614 -1.962664 -0.124999
v -0.172047 -1.881434 -0.124999
v 0.065717 -1.881434 -0.202253
v 0.237764 -1.750000 0.077253
v 0.237764 -1.750000 -0.077253
v 0.000000 -1.750000 0.250000
v 0.146946 -1.750000 0.202254
v -0.237764 -1.750000 0.077253
v -0.146946 -1.750000 0.202254
v -0.146946 -1.750000 -0.202254
v -0.237764 -1.750000 -0.077253
v 0.146946 -1.750000 -0.202254
v 0.000000 -1.750000 -0.250000
v 0.172047 -1.618566 0.124999
v -0.065717 -1.618566 0.202253
v -0.212662 -1.618566 0.000000
v -0.065717 -1.618566 -0.202253
v 0.172047 -1.618566 -0.124999
v 0.040614 -1.537336 0.124999
v 0.131432 -1.537337 0.000000
v -0.106331 -1.537336 0.077253
v -0.106331 -1.537336 -0.077253
v 0.040614 -1.537336 -0.124999
vn 0.1024 -0.9435 0.3151
vn 0.7002 -0.6617 0.2680
vn -0.2680 -0.9435 0.1947
vn -0.2680 -0.9435 -0.1947
vn 0.1024 -0.9435 -0.3151
vn 0.9050 -0.3304 0.2680
vn 0.0247 -0.3304 0.9435
vn -0.8897 -0.3304 0.3151
vn -0.5746 -0.3304 -0.7488
vn 0.5346 -0.3304 -0.7779
vn 0.8026 -0.1256 0.5831
vn -0.3066 -0.1256 0.9435
vn -0.9921 -0.1256 0.0000
vn -0.3066 -0.1256 -0.9435
vn 0.8026 -0.1256 -0.5831
vn 0.4089 0.6617 0.6284
vn -0.4713 0.6617 0.5831
vn -0.7002 0.6617 -0.2680
vn 0.0385 0.6617 -0.7488
vn 0.7240 0.6617 -0.1947
vn 0.2680 0.9435 -0.1947
vn 0.4911 0.7947 -0.3568
vn 0.4089 0.6617 -0.6284
vn -0.1024 0.9435 -0.3151
vn -0.1876 0.7947 -0.5773
vn -0.4713 0.6617 -0.5831
vn -0.3313 0.9435 0.0000
vn -0.6071 0.7947 0.0000
vn -0.7002 0.6617 0.2680
vn -0.1024 0.9435 0.3151
vn -0.1876 0.7947 0.5773
vn 0.0385 0.6617 0.7488
vn 0.2680 0.9435 0.1947
vn 0.4911 0.7947 0.3568
vn 0.7240 0.6617 0.1947
vn 0.8897 0.3304 -0.3151
vn 0.7947 0.1876 -0.5773
vn 0.5746 0.3304 -0.7488
vn -0.0247 0.3304 -0.9435
vn -0.3035 0.1876 -0.9342
vn -0.5346 0.3304 -0.7779
vn -0.9050 0.3304 -0.2680
vn -0.9822 0.1876 0.0000
vn -0.9050 0.3304 0.2680
vn -0.5346 0.3304 0.7779
vn -0.3035 0.1876 0.9342
vn -0.0247 0.3304 0.9435
vn 0.5746 0.3304 0.7488
vn 0.7947 0.1876 0.5773
vn 0.8897 0.3304 0.3151
vn 0.3066 0.1256 -0.9435
vn 0.3035 -0.1876 -0.9342
vn 0.0247 -0.3304 -0.9435
vn -0.8026 0.1256 -0.5831
vn -0.7947 -0.1876 -0.5773
vn -0.8897 -0.3304 -0.3151
vn -0.8026 0.1256 0.5831
vn -0.7947 -0.1876 0.5773
vn -0.5746 -0.3304 0.7488
vn 0.3066 0.1256 0.9435
vn 0.3035 -0.1876 0.9342
vn 0.5346 -0.3304 0.7779
vn 0.9921 0.1256 0.0000
vn 0.9822 -0.1876 0.0000
vn 0.9050 -0.3304 -0.2680
vn 0.4713 -0.6617 -0.5831
vn 0.1876 -0.7947 -0.5773
vn -0.0385 -0.6617 -0.7488
vn -0.4089 -0.6617 -0.6284
vn -0.4911 -0.7947 -0.3568
vn -0.7240 -0.6617 -0.1947
vn -0.7240 -0.6617 0.1947
vn -0.4911 -0.7947 0.3568
vn -0.4089 -0.6617 0.6284
vn 0.7002 -0.6617 -0.2680
vn 0.6071 -0.7947 0.0000
vn 0.3313 -0.9435 0.0000
vn -0.0385 -0.6617 0.7488
vn 0.1876 -0.7947 0.5773
vn 0.4713 -0.6617 0.5831
usemtl None
s off
f 1//1 14//1 13//1
f 2//2 14//2 16//2
f 1//3 13//3 18//3
f 1//4 18//4 20//4
f 1//5 20//5 17//5
f 2//6 16//6 23//6
f 3//7 15//7 25//7
f 4//8 19//8 27//8
f 5//9 21//9 29//9
f 6//10 22//10 31//10
f 2//11 23//11 26//11
f 3//12 25//12 28//12
f 4//13 27//13 30//13
f 5//14 29//14 32//14
f 6//15 31//15 24//15
f 7//16 33//16 38//16
f 8//17 34//17 40//17
f 9//18 35//18 41//18
f 10//19 36//19 42//19
f 11//20 37//20 39//20
f 39//21 42//21 12//21
f 39//22 37//22 42//22
f 37//23 10//23 42//23
f 42//24 41//24 12//24
f 42//25 36//25 41//25
f 36//26 9//26 41//26
f 41//27 40//27 12//27
f 41//28 35//28 40//28
f 35//29 8//29 40//29
f 40//30 38//30 12//30
f 40//31 34//31 38//31
f 34//32 7//32 38//32
f 38//33 39//33 12//33
f 38//34 33//34 39//34
f 33//35 11//35 39//35
f 24//36 37//36 11//36
f 24//37 31//37 37//37
f 31//38 10//38 37//38
f 32//39 36//39 10//39
f 32//40 29//40 36//40
f 29//41 9//41 36//41
f 30//42 35//42 9//42
f 30//43 27//43 35//43
f 27//44 8//44 35//44
f 28//45 34//45 8//45
f 28//46 25//46 34//46
f 25//47 7//47 34//47
f 26//48 33//48 7//48
f 26//49 23//49 33//49
f 23//50 11//50 33//50
f 31//51 32//51 10//51
f 31//52 22//52 32//52
f 22//53 5//53 32//53
f 29//54 30//54 9//54
f 29//55 21//55 30//55
f 21//56 4//56 30//56
f 27//57 28//57 8//57
f 27//58 19//58 28//58
f 19//59 3//59 28//59
f 25//60 26//60 7//60
f 25//61 15//61 26//61
f 15//62 2//62 26//62
f 23//63 24//63 11//63
f 23//64 16//64 24//64
f 16//65 6//65 24//65
f 17//66 22//66 6//66
f 17//67 20//67 22//67
f 20//68 5//68 22//68
f 20//69 21//69 5//69
f 20//70 18//70 21//70
f 18//71 4//71 21//71
f 18//72 19//72 4//72
f 18//73 13//73 19//73
f 13//74 3//74 19//74
f 16//75 17//75 6//75
f 16//76 14//76 17//76
f 14//77 1//77 17//77
f 13//78 15//78 3//78
f 13//79 14//79 15//79
f 14//80 2//80 15//80
o Cone_Cone.003
v 0.000000 0.000250 -0.375000
v -0.143506 0.000250 -0.346455
v -0.265165 0.000250 -0.265165
v -0.346455 0.000250 -0.143506
v -0.375000 0.000250 0.000000
v -0.000000 -1.999250 0.000000
v -0.346455 0.000250 0.143506
v -0.265165 0.000250 0.265165
v -0.143506 0.000250 0.346455
v -0.000000 0.000250 0.375000
v 0.143506 0.000250 0.346455
v 0.265165 0.000250 0.265165
v 0.346455 0.000250 0.143506
v 0.375000 0.000250 -0.000000
v 0.346455 0.000250 -0.143506
v 0.265165 0.000250 -0.265165
v 0.143506 0.000250 -0.346455
vn -0.1919 -0.1809 -0.9646
vn -0.5464 -0.1809 -0.8178
vn -0.8178 -0.1809 -0.5464
vn -0.9646 -0.1809 -0.1919
vn -0.9646 -0.1809 0.1919
vn -0.8178 -0.1809 0.5464
vn -0.5464 -0.1809 0.8178
vn -0.1919 -0.1809 0.9646
vn 0.1919 -0.1809 0.9646
vn 0.5464 -0.1809 0.8178
vn 0.8178 -0.1809 0.5464
vn 0.9646 -0.1809 0.1919
vn 0.9646 -0.1809 -0.1919
vn 0.8178 -0.1809 -0.5464
vn 0.5464 -0.1809 -0.8178
vn 0.1919 -0.1809 -0.9646
vn 0.0000 1.0000 0.0000
usemtl None
s off
f 43//81 48//81 44//81
f 44//82 48//82 45//82
f 45//83 48//83 46//83
f 46//84 48//84 47//84
f 47//85 48//85 49//85
f 49//86 48//86 50//86
f 50//87 48//87 51//87
f 51//88 48//88 52//88
f 52//89 48//89 53//89
f 53//90 48//90 54//90
f 54//91 48//91 55//91
f 55//92 48//92 56//92
f 56//93 48//93 57//93
f 57//94 48//94 58//94
f 58//95 48//95 59//95
f 59//96 48//96 43//96
f 51//97 55//97 46//97
f 59//97 43//97 44//97
f 44//97 45//97 46//97
f 46//97 47//97 49//97
f 49//97 50//97 51//97
f 51//97 52//97 53//97
f 53//97 54//97 51//97
f 55//97 56//97 57//97
f 57//97 58//97 55//97
f 59//97 44//97 46//97
f 46//97 49//97 51//97
f 51//97 54//97 55//97
f 55//97 58//97 59//97
f 59//97 46//97 55//97
